<svg xmlns="http://www.w3.org/2000/svg" viewBox="0 0 256 256" width="96" height="96"><defs><linearGradient x1="32" y1="6.667" x2="32" y2="57.872" gradientUnits="userSpaceOnUse" id="color-1"><stop offset="0" stop-color="#ff5300"/><stop offset="1" stop-color="#45145a"/></linearGradient><linearGradient x1="32" y1="18.167" x2="32" y2="45.679" gradientUnits="userSpaceOnUse" id="color-2"><stop offset="0" stop-color="#ff9f70"/><stop offset="1" stop-color="#8b28b6"/></linearGradient><linearGradient x1="46" y1="12.75" x2="46" y2="23.049" gradientUnits="userSpaceOnUse" id="color-3"><stop offset="0" stop-color="#ff9f70"/><stop offset="1" stop-color="#8b28b6"/></linearGradient></defs><g fill="none" stroke-miterlimit="10" font-family="none" font-weight="none" font-size="none" text-anchor="none" style="mix-blend-mode:normal"><path d="M44 57H20c-7.168 0-13-5.832-13-13V20c0-7.168 5.832-13 13-13h24c7.168 0 13 5.832 13 13v24c0 7.168-5.832 13-13 13zM20 9C13.935 9 9 13.935 9 20v24c0 6.065 4.935 11 11 11h24c6.065 0 11-4.935 11-11V20c0-6.065-4.935-11-11-11z" fill="url('#color-1')" transform="scale(4)"/><path d="M32 45c-7.168 0-13-5.832-13-13s5.832-13 13-13 13 5.832 13 13-5.832 13-13 13zm0-22c-4.962 0-9 4.038-9 9 0 4.963 4.038 9 9 9 4.963 0 9-4.037 9-9 0-4.962-4.037-9-9-9z" fill="url('#color-2')" transform="scale(4)"/><path d="M46 15a3 3 0 1 0 0 6 3 3 0 0 0 0-6z" fill="url('#color-3')" transform="scale(4)"/></g></svg>